<?xml version="1.0" standalone="no"?>
<!DOCTYPE svg PUBLIC "-//W3C//DTD SVG 20010904//EN"
 "http://www.w3.org/TR/2001/REC-SVG-20010904/DTD/svg10.dtd">
<svg version="1.0" xmlns="http://www.w3.org/2000/svg"
 width="561.000000pt" height="407.000000pt" viewBox="0 0 561.000000 407.000000"
 preserveAspectRatio="xMidYMid meet">
<metadata>
Created by potrace 1.15, written by Peter Selinger 2001-2017
</metadata>
<g transform="translate(0.000000,407.000000) scale(0.100000,-0.100000)"
fill="#000000" stroke="none">
<path d="M1904 4063 c-17 -3 -132 -226 -578 -1124 -306 -615 -556 -1124 -556
-1130 0 -8 11 -9 33 -5 172 37 281 23 428 -56 80 -42 176 -146 222 -240 41
-84 56 -141 57 -215 0 -28 4 -54 9 -58 18 -10 48 45 216 394 93 193 170 350
171 348 6 -7 674 -1298 744 -1437 170 -341 219 -427 248 -438 93 -36 268 -75
416 -93 129 -15 483 -6 596 15 430 81 786 265 1084 561 325 322 539 744 600
1184 21 146 21 426 0 572 -109 787 -680 1445 -1443 1664 -214 61 -259 65 -727
65 -232 0 -436 -3 -453 -6 -31 -7 -41 -29 -22 -50 5 -5 109 -171 231 -369 122
-198 223 -361 225 -363 2 -2 70 -5 152 -7 301 -6 531 -87 746 -262 286 -234
457 -639 418 -994 -39 -359 -209 -658 -482 -852 -88 -62 -257 -142 -353 -167
-100 -25 -276 -43 -347 -35 l-57 7 -773 1549 c-425 852 -776 1548 -779 1548
-3 -1 -14 -4 -26 -6z"/>
<path d="M442 1160 c-209 -55 -375 -216 -427 -416 -20 -76 -20 -242 0 -318 51
-194 217 -360 411 -411 76 -20 242 -20 318 0 182 47 333 189 414 387 20 49 26
86 30 168 5 131 -8 197 -60 302 -71 142 -208 252 -364 293 -81 21 -231 19
-322 -5z"/>
</g>
</svg>
